<mxfile host="app.diagrams.net" modified="2023-04-18T15:33:30.913Z" agent="Mozilla/5.0 (Windows NT 10.0; Win64; x64) AppleWebKit/537.36 (KHTML, like Gecko) Chrome/112.0.0.0 Safari/537.36 Edg/112.0.1722.48" version="21.1.7" etag="yS75k_UX0-bXZKi3Kago" type="github">
  <diagram name="Страница 1" id="BeK-6b8nOYLPJeLWcsfd">
    <mxGraphModel>
      <root>
        <mxCell id="0" />
        <mxCell id="1" parent="0" />
      </root>
    </mxGraphModel>
  </diagram>
</mxfile>
